; Drill file
; Format: 2.4 (00.0000)
M48
INCH
T01C0.024
T02C0.028
T03C0.031
%
G05
G90
T01
X029330Y017690
X027610Y017690
X027330Y017690
X027040Y017690
X027040Y022690
X027330Y022690
X027570Y022690
X029330Y022690
T02
X025390Y019810
X025390Y020690
X024520Y020690
X024520Y019810
T03
X025870Y014500
X023870Y014500
X023870Y015620
X023120Y016980
X021870Y015620
X020620Y017620
X019620Y017620
X019620Y018620
X018620Y018620
X018620Y017620
X017620Y017620
X017620Y018620
X018040Y019880
X017050Y019880
X017050Y019880
X016070Y019880
X016070Y019880
X015080Y019880
X014100Y019880
X014120Y018620
X015620Y017620
X016620Y017620
X014120Y016620
X015370Y021000
X016500Y021740
X016070Y022830
X017050Y022830
X018020Y022830
X018040Y022830
X019020Y022830
X019020Y022830
X020000Y022830
X020000Y022830
X020990Y022830
X020990Y022830
X021970Y022830
X022960Y022830
X020500Y021740
X019370Y021000
X019020Y019880
X020000Y019880
X020000Y019880
X020990Y019880
X020990Y019880
X021970Y019880
X022960Y019880
X020620Y018620
X026120Y016980
X025130Y024620
X025130Y025620
X025130Y026620
X025130Y027620
X015630Y028120
X015630Y027120
X015630Y026120
X015630Y025120
X015630Y024120
X014370Y024060
X014100Y022830
X015080Y022830
X014370Y027600
M30
