; Drill file
; Format: 2.4 (00.0000)
M48
INCH
T01C0.02
T02C0.024
T03C0.028
T04C0.031
T05C0.035
%
G05
G90
T01
X098110Y091980
X098110Y094550
X099670Y094920
X099670Y094920
X101670Y097740
X095240Y094980
X095240Y094980
X093920Y096050
X094980Y093110
T02
X108480Y096670
X106480Y096670
X106480Y101670
X108480Y101670
T03
X105550Y098800
X105550Y099670
X104670Y099670
X104670Y098800
T04
X093550Y092480
X093550Y094860
X095610Y096610
X096610Y096610
X096610Y097610
X097610Y097610
X098610Y097610
X099610Y097610
X099610Y096610
X098610Y096610
X097610Y096610
X094740Y098090
X094740Y102090
X094670Y103610
X096110Y105980
X097110Y105980
X097110Y106980
X098110Y106980
X099110Y106980
X100110Y106980
X101110Y106980
X102110Y106980
X103110Y106980
X104110Y106980
X105110Y106980
X106450Y104000
X106450Y103010
X105300Y103610
X107830Y104000
X107830Y103010
X103110Y101980
X102110Y101980
X101110Y100980
X100110Y100980
X099110Y100980
X098110Y100980
X098110Y101980
X100110Y101980
X102170Y099670
X102170Y096770
T05
X108330Y105410
X105960Y105410
X093970Y104280
X093970Y106650
M30
