%FSLAX32Y32*%
%MOMM*%
%LNKUPFERSEITE2*%
G71*
G01*
%ADD10C, 2.30*%
%ADD11C, 0.50*%
%ADD12C, 0.32*%
%ADD13C, 0.00*%
%ADD14C, 0.30*%
%ADD15C, 1.00*%
%ADD16C, 2.30*%
%ADD17C, 0.35*%
%ADD18C, 1.00*%
%ADD19C, 0.60*%
%ADD20C, 0.40*%
%ADD21C, 2.20*%
%ADD22C, 1.50*%
%ADD23C, 2.30*%
%ADD24C, 0.70*%
%ADD25C, 0.54*%
%ADD26C, 1.50*%
%LPD*%
X24063Y25931D02*
G54D10*
D03*
G54D11*
X27778Y23396D02*
X27778Y23142D01*
X27524Y23142D01*
G54D11*
X27524Y27460D02*
X27778Y27460D01*
X27778Y27206D01*
G54D11*
X23586Y27460D02*
X23332Y27460D01*
X23332Y27206D01*
G54D11*
X23332Y23396D02*
X23332Y23142D01*
X23586Y23142D01*
G36*
X25412Y24585D02*
X25348Y24649D01*
X25256Y24649D01*
X25192Y24585D01*
X25192Y24493D01*
X25256Y24429D01*
X25348Y24429D01*
X25412Y24493D01*
X25412Y24585D01*
G37*
G36*
X25158Y24585D02*
X25094Y24649D01*
X25002Y24649D01*
X24938Y24585D01*
X24938Y24493D01*
X25002Y24429D01*
X25094Y24429D01*
X25158Y24493D01*
X25158Y24585D01*
G37*
G36*
X24904Y24585D02*
X24840Y24649D01*
X24748Y24649D01*
X24684Y24585D01*
X24684Y24493D01*
X24748Y24429D01*
X24840Y24429D01*
X24904Y24493D01*
X24904Y24585D01*
G37*
G36*
X25412Y24839D02*
X25348Y24903D01*
X25256Y24903D01*
X25192Y24839D01*
X25192Y24747D01*
X25256Y24683D01*
X25348Y24683D01*
X25412Y24747D01*
X25412Y24839D01*
G37*
G36*
X25158Y24839D02*
X25094Y24903D01*
X25002Y24903D01*
X24938Y24839D01*
X24938Y24747D01*
X25002Y24683D01*
X25094Y24683D01*
X25158Y24747D01*
X25158Y24839D01*
G37*
G36*
X24904Y24839D02*
X24840Y24903D01*
X24748Y24903D01*
X24684Y24839D01*
X24684Y24747D01*
X24748Y24683D01*
X24840Y24683D01*
X24904Y24747D01*
X24904Y24839D01*
G37*
G36*
X24629Y24830D02*
X24576Y24883D01*
X24502Y24883D01*
X24449Y24830D01*
X24449Y24756D01*
X24502Y24703D01*
X24576Y24703D01*
X24629Y24756D01*
X24629Y24830D01*
G37*
G36*
X24629Y24576D02*
X24576Y24629D01*
X24502Y24629D01*
X24449Y24576D01*
X24449Y24502D01*
X24502Y24449D01*
X24576Y24449D01*
X24629Y24502D01*
X24629Y24576D01*
G37*
G54D12*
X27524Y23970D02*
X27524Y24077D01*
X27535Y24077D01*
X27557Y24064D01*
X27624Y23984D01*
X27646Y23970D01*
X27668Y23970D01*
X27690Y23984D01*
X27701Y24010D01*
X27701Y24037D01*
X27690Y24064D01*
X27668Y24077D01*
G54D12*
X27668Y23908D02*
X27690Y23895D01*
X27701Y23868D01*
X27701Y23841D01*
X27690Y23815D01*
X27668Y23801D01*
X27646Y23801D01*
X27624Y23815D01*
X27612Y23841D01*
X27601Y23815D01*
X27579Y23801D01*
X27557Y23801D01*
X27535Y23815D01*
X27524Y23841D01*
X27524Y23868D01*
X27535Y23895D01*
X27557Y23908D01*
G54D12*
X27524Y23632D02*
X27524Y23739D01*
X27535Y23739D01*
X27557Y23726D01*
X27624Y23646D01*
X27646Y23632D01*
X27668Y23632D01*
X27690Y23646D01*
X27701Y23672D01*
X27701Y23699D01*
X27690Y23726D01*
X27668Y23739D01*
G54D12*
X27701Y23570D02*
X27524Y23503D01*
X27701Y23437D01*
G54D12*
X27635Y23375D02*
X27701Y23308D01*
X27524Y23308D01*
G36*
X24395Y24585D02*
X24331Y24649D01*
X24239Y24649D01*
X24175Y24585D01*
X24175Y24493D01*
X24239Y24429D01*
X24331Y24429D01*
X24395Y24493D01*
X24395Y24585D01*
G37*
G36*
X26246Y26092D02*
X26246Y26132D01*
X26116Y26132D01*
X26116Y26092D01*
X26246Y26092D01*
G37*
G36*
X25466Y26092D02*
X25466Y26132D01*
X25336Y26132D01*
X25336Y26092D01*
X25466Y26092D01*
G37*
G36*
X26246Y26157D02*
X26246Y26197D01*
X26116Y26197D01*
X26116Y26157D01*
X26246Y26157D01*
G37*
G36*
X25466Y26157D02*
X25466Y26197D01*
X25336Y26197D01*
X25336Y26157D01*
X25466Y26157D01*
G37*
G36*
X26246Y26222D02*
X26246Y26262D01*
X26116Y26262D01*
X26116Y26222D01*
X26246Y26222D01*
G37*
G36*
X25466Y26222D02*
X25466Y26262D01*
X25336Y26262D01*
X25336Y26222D01*
X25466Y26222D01*
G37*
G36*
X26246Y26287D02*
X26246Y26327D01*
X26116Y26327D01*
X26116Y26287D01*
X26246Y26287D01*
G37*
G36*
X25466Y26287D02*
X25466Y26327D01*
X25336Y26327D01*
X25336Y26287D01*
X25466Y26287D01*
G37*
G36*
X26246Y26352D02*
X26246Y26392D01*
X26116Y26392D01*
X26116Y26352D01*
X26246Y26352D01*
G37*
G36*
X25466Y26352D02*
X25466Y26392D01*
X25336Y26392D01*
X25336Y26352D01*
X25466Y26352D01*
G37*
G36*
X26246Y26417D02*
X26246Y26457D01*
X26116Y26457D01*
X26116Y26417D01*
X26246Y26417D01*
G37*
G36*
X25466Y26417D02*
X25466Y26457D01*
X25336Y26457D01*
X25336Y26417D01*
X25466Y26417D01*
G37*
G36*
X26246Y26482D02*
X26246Y26522D01*
X26116Y26522D01*
X26116Y26482D01*
X26246Y26482D01*
G37*
G36*
X25466Y26482D02*
X25466Y26522D01*
X25336Y26522D01*
X25336Y26482D01*
X25466Y26482D01*
G37*
G36*
X26246Y26547D02*
X26246Y26587D01*
X26116Y26587D01*
X26116Y26547D01*
X26246Y26547D01*
G37*
G36*
X25466Y26547D02*
X25466Y26587D01*
X25336Y26587D01*
X25336Y26547D01*
X25466Y26547D01*
G37*
G36*
X26246Y26612D02*
X26246Y26652D01*
X26116Y26652D01*
X26116Y26612D01*
X26246Y26612D01*
G37*
G36*
X25466Y26612D02*
X25466Y26652D01*
X25336Y26652D01*
X25336Y26612D01*
X25466Y26612D01*
G37*
G36*
X26246Y26677D02*
X26246Y26717D01*
X26116Y26717D01*
X26116Y26677D01*
X26246Y26677D01*
G37*
G36*
X25466Y26677D02*
X25466Y26717D01*
X25336Y26717D01*
X25336Y26677D01*
X25466Y26677D01*
G37*
G36*
X26246Y26742D02*
X26246Y26782D01*
X26116Y26782D01*
X26116Y26742D01*
X26246Y26742D01*
G37*
G36*
X25466Y26742D02*
X25466Y26782D01*
X25336Y26782D01*
X25336Y26742D01*
X25466Y26742D01*
G37*
G36*
X26246Y26807D02*
X26246Y26847D01*
X26116Y26847D01*
X26116Y26807D01*
X26246Y26807D01*
G37*
G36*
X25466Y26807D02*
X25466Y26847D01*
X25336Y26847D01*
X25336Y26807D01*
X25466Y26807D01*
G37*
G36*
X26246Y26872D02*
X26246Y26912D01*
X26116Y26912D01*
X26116Y26872D01*
X26246Y26872D01*
G37*
G36*
X25466Y26872D02*
X25466Y26912D01*
X25336Y26912D01*
X25336Y26872D01*
X25466Y26872D01*
G37*
G36*
X26246Y26937D02*
X26246Y26977D01*
X26116Y26977D01*
X26116Y26937D01*
X26246Y26937D01*
G37*
G36*
X25466Y26937D02*
X25466Y26977D01*
X25336Y26977D01*
X25336Y26937D01*
X25466Y26937D01*
G37*
G36*
X26681Y25355D02*
X26626Y25410D01*
X26548Y25410D01*
X26493Y25355D01*
X26493Y25277D01*
X26548Y25222D01*
X26626Y25222D01*
X26681Y25277D01*
X26681Y25355D01*
G37*
G36*
X26903Y25355D02*
X26848Y25410D01*
X26770Y25410D01*
X26715Y25355D01*
X26715Y25277D01*
X26770Y25222D01*
X26848Y25222D01*
X26903Y25277D01*
X26903Y25355D01*
G37*
G36*
X26903Y25133D02*
X26848Y25188D01*
X26770Y25188D01*
X26715Y25133D01*
X26715Y25055D01*
X26770Y25000D01*
X26848Y25000D01*
X26903Y25055D01*
X26903Y25133D01*
G37*
G36*
X26681Y25133D02*
X26626Y25188D01*
X26548Y25188D01*
X26493Y25133D01*
X26493Y25055D01*
X26548Y25000D01*
X26626Y25000D01*
X26681Y25055D01*
X26681Y25133D01*
G37*
G36*
X27226Y25898D02*
X27121Y26003D01*
X26973Y26003D01*
X26868Y25898D01*
X26868Y25750D01*
X26973Y25645D01*
X27121Y25645D01*
X27226Y25750D01*
X27226Y25898D01*
G37*
G36*
X27226Y24628D02*
X27121Y24733D01*
X26973Y24733D01*
X26868Y24628D01*
X26868Y24480D01*
X26973Y24375D01*
X27121Y24375D01*
X27226Y24480D01*
X27226Y24628D01*
G37*
G36*
X27734Y25898D02*
X27629Y26003D01*
X27481Y26003D01*
X27376Y25898D01*
X27376Y25750D01*
X27481Y25645D01*
X27629Y25645D01*
X27734Y25750D01*
X27734Y25898D01*
G37*
G36*
X27734Y24628D02*
X27629Y24733D01*
X27481Y24733D01*
X27376Y24628D01*
X27376Y24480D01*
X27481Y24375D01*
X27629Y24375D01*
X27734Y24480D01*
X27734Y24628D01*
G37*
G36*
X26595Y26220D02*
X26575Y26240D01*
X26525Y26240D01*
X26515Y26230D01*
X26515Y26130D01*
X26525Y26120D01*
X26575Y26120D01*
X26595Y26140D01*
X26595Y26220D01*
G37*
G54D13*
X26595Y26220D02*
X26575Y26240D01*
X26525Y26240D01*
X26515Y26230D01*
X26515Y26130D01*
X26525Y26120D01*
X26575Y26120D01*
X26595Y26140D01*
X26595Y26220D01*
G36*
X26415Y26230D02*
X26405Y26240D01*
X26355Y26240D01*
X26335Y26220D01*
X26335Y26140D01*
X26355Y26120D01*
X26405Y26120D01*
X26415Y26130D01*
X26415Y26230D01*
G37*
G54D13*
X26415Y26230D02*
X26405Y26240D01*
X26355Y26240D01*
X26335Y26220D01*
X26335Y26140D01*
X26355Y26120D01*
X26405Y26120D01*
X26415Y26130D01*
X26415Y26230D01*
G36*
X26590Y26205D02*
X26540Y26205D01*
X26540Y26155D01*
X26590Y26155D01*
X26590Y26205D01*
G37*
G54D14*
X26222Y26111D02*
X26428Y26047D01*
G54D14*
X26222Y26174D02*
X26349Y26174D01*
G54D14*
X26142Y26508D02*
X26015Y26508D01*
G54D14*
X26142Y26762D02*
X26015Y26762D01*
G54D14*
X26015Y26508D02*
X26015Y26762D01*
G36*
X26301Y25950D02*
X26237Y26014D01*
X26145Y26014D01*
X26081Y25950D01*
X26081Y25858D01*
X26145Y25794D01*
X26237Y25794D01*
X26301Y25858D01*
X26301Y25950D01*
G37*
G54D14*
X26158Y26238D02*
X26055Y26238D01*
X26015Y26206D01*
X26015Y26079D01*
X26190Y25904D01*
G54D14*
X26222Y26309D02*
X26269Y26309D01*
X26365Y26285D01*
G54D14*
X25936Y25904D02*
X25936Y26293D01*
X26015Y26373D01*
X26142Y26373D01*
G36*
X26668Y26060D02*
X26648Y26080D01*
X26598Y26080D01*
X26588Y26070D01*
X26588Y25970D01*
X26598Y25960D01*
X26648Y25960D01*
X26668Y25980D01*
X26668Y26060D01*
G37*
G54D13*
X26668Y26060D02*
X26648Y26080D01*
X26598Y26080D01*
X26588Y26070D01*
X26588Y25970D01*
X26598Y25960D01*
X26648Y25960D01*
X26668Y25980D01*
X26668Y26060D01*
G36*
X26488Y26070D02*
X26478Y26080D01*
X26428Y26080D01*
X26408Y26060D01*
X26408Y25980D01*
X26428Y25960D01*
X26478Y25960D01*
X26488Y25970D01*
X26488Y26070D01*
G37*
G54D13*
X26488Y26070D02*
X26478Y26080D01*
X26428Y26080D01*
X26408Y26060D01*
X26408Y25980D01*
X26428Y25960D01*
X26478Y25960D01*
X26488Y25970D01*
X26488Y26070D01*
G36*
X26663Y26046D02*
X26613Y26046D01*
X26613Y25996D01*
X26663Y25996D01*
X26663Y26046D01*
G37*
G54D14*
X26158Y26436D02*
X25936Y26436D01*
X25618Y26762D01*
X25428Y26762D01*
G36*
X25285Y25696D02*
X25221Y25760D01*
X25129Y25760D01*
X25065Y25696D01*
X25065Y25604D01*
X25129Y25540D01*
X25221Y25540D01*
X25285Y25604D01*
X25285Y25696D01*
G37*
G54D14*
X25444Y25904D02*
X25555Y26095D01*
X25555Y26174D01*
X25436Y26174D01*
G36*
X24873Y26673D02*
X24873Y26563D01*
X25003Y26563D01*
X25003Y26673D01*
X24873Y26673D01*
G37*
G36*
X24873Y26483D02*
X24873Y26373D01*
X25003Y26373D01*
X25003Y26483D01*
X24873Y26483D01*
G37*
G36*
X24873Y26292D02*
X24873Y26182D01*
X25003Y26182D01*
X25003Y26292D01*
X24873Y26292D01*
G37*
G36*
X24650Y26673D02*
X24650Y26563D01*
X24780Y26563D01*
X24780Y26673D01*
X24650Y26673D01*
G37*
G36*
X24650Y26483D02*
X24650Y26373D01*
X24780Y26373D01*
X24780Y26483D01*
X24650Y26483D01*
G37*
G36*
X24650Y26292D02*
X24650Y26182D01*
X24780Y26182D01*
X24780Y26292D01*
X24650Y26292D01*
G37*
G36*
X24428Y26673D02*
X24428Y26563D01*
X24558Y26563D01*
X24558Y26673D01*
X24428Y26673D01*
G37*
G36*
X24428Y26483D02*
X24428Y26373D01*
X24558Y26373D01*
X24558Y26483D01*
X24428Y26483D01*
G37*
G36*
X24428Y26292D02*
X24428Y26182D01*
X24558Y26182D01*
X24558Y26292D01*
X24428Y26292D01*
G37*
G54D14*
X25364Y26634D02*
X25301Y26634D01*
X25206Y26587D01*
X24968Y26587D01*
G36*
X26047Y27220D02*
X25983Y27284D01*
X25891Y27284D01*
X25827Y27220D01*
X25827Y27128D01*
X25891Y27064D01*
X25983Y27064D01*
X26047Y27128D01*
X26047Y27220D01*
G37*
G36*
X25793Y27220D02*
X25729Y27284D01*
X25637Y27284D01*
X25573Y27220D01*
X25573Y27128D01*
X25637Y27064D01*
X25729Y27064D01*
X25793Y27128D01*
X25793Y27220D01*
G37*
G36*
X26301Y27220D02*
X26237Y27284D01*
X26145Y27284D01*
X26081Y27220D01*
X26081Y27128D01*
X26145Y27064D01*
X26237Y27064D01*
X26301Y27128D01*
X26301Y27220D01*
G37*
G54D11*
X26190Y26968D02*
X26190Y27174D01*
G54D14*
X26142Y26888D02*
X26007Y26888D01*
X25936Y26952D01*
X25936Y27174D01*
G54D14*
X26158Y26825D02*
X25888Y26825D01*
G54D14*
X26214Y26825D02*
X26305Y26825D01*
X26365Y26825D01*
X26365Y26793D01*
X26305Y26762D01*
X26214Y26762D01*
G36*
X26555Y27220D02*
X26491Y27284D01*
X26399Y27284D01*
X26335Y27220D01*
X26335Y27128D01*
X26399Y27064D01*
X26491Y27064D01*
X26555Y27128D01*
X26555Y27220D01*
G37*
G36*
X25285Y27220D02*
X25221Y27284D01*
X25129Y27284D01*
X25065Y27220D01*
X25065Y27128D01*
X25129Y27064D01*
X25221Y27064D01*
X25285Y27128D01*
X25285Y27220D01*
G37*
G36*
X25031Y27220D02*
X24967Y27284D01*
X24875Y27284D01*
X24811Y27220D01*
X24811Y27128D01*
X24875Y27064D01*
X24967Y27064D01*
X25031Y27128D01*
X25031Y27220D01*
G37*
G54D14*
X25364Y26888D02*
X25206Y26888D01*
X24920Y27174D01*
G54D14*
X25396Y26952D02*
X25333Y26952D01*
X25174Y27174D01*
G36*
X25539Y27220D02*
X25475Y27284D01*
X25383Y27284D01*
X25319Y27220D01*
X25319Y27128D01*
X25383Y27064D01*
X25475Y27064D01*
X25539Y27128D01*
X25539Y27220D01*
G37*
G54D14*
X25618Y26762D02*
X25618Y26952D01*
X25428Y27142D01*
G54D14*
X26190Y26634D02*
X26301Y26634D01*
X26476Y26793D01*
X26476Y26888D01*
G36*
X26047Y25950D02*
X25983Y26014D01*
X25891Y26014D01*
X25827Y25950D01*
X25827Y25858D01*
X25891Y25794D01*
X25983Y25794D01*
X26047Y25858D01*
X26047Y25950D01*
G37*
G54D14*
X25428Y26571D02*
X25587Y26571D01*
X25841Y26317D01*
X25841Y26063D01*
X25761Y25968D01*
X25761Y25825D01*
X25872Y25714D01*
X26238Y25714D01*
X26396Y25547D01*
X26428Y25857D01*
G54D14*
X26222Y26571D02*
X26349Y26571D01*
X26571Y26762D01*
X26571Y27016D01*
G36*
X25793Y25696D02*
X25729Y25760D01*
X25637Y25760D01*
X25573Y25696D01*
X25573Y25604D01*
X25637Y25540D01*
X25729Y25540D01*
X25793Y25604D01*
X25793Y25696D01*
G37*
G36*
X25539Y25696D02*
X25475Y25760D01*
X25383Y25760D01*
X25319Y25696D01*
X25319Y25604D01*
X25383Y25540D01*
X25475Y25540D01*
X25539Y25604D01*
X25539Y25696D01*
G37*
G54D14*
X25428Y26436D02*
X25563Y26436D01*
X25730Y26285D01*
X25730Y26079D01*
X25682Y25984D01*
X25682Y25650D01*
G54D14*
X25428Y26373D02*
X25499Y26373D01*
X25634Y26254D01*
X25634Y26071D01*
X25603Y26000D01*
X25603Y25825D01*
X25460Y25682D01*
G36*
X25539Y25950D02*
X25475Y26014D01*
X25383Y26014D01*
X25319Y25950D01*
X25319Y25858D01*
X25383Y25794D01*
X25475Y25794D01*
X25539Y25858D01*
X25539Y25950D01*
G37*
G54D14*
X25380Y26111D02*
X25317Y26111D01*
X25238Y26031D01*
X25238Y25761D01*
X25190Y25650D01*
G36*
X26469Y25886D02*
X26449Y25906D01*
X26399Y25906D01*
X26389Y25896D01*
X26389Y25796D01*
X26399Y25786D01*
X26447Y25786D01*
X26469Y25806D01*
X26469Y25886D01*
G37*
G54D13*
X26469Y25886D02*
X26449Y25906D01*
X26399Y25906D01*
X26389Y25896D01*
X26389Y25796D01*
X26399Y25786D01*
X26447Y25786D01*
X26469Y25806D01*
X26469Y25886D01*
G36*
X26289Y25896D02*
X26279Y25906D01*
X26229Y25906D01*
X26209Y25886D01*
X26209Y25806D01*
X26229Y25786D01*
X26279Y25786D01*
X26289Y25796D01*
X26289Y25896D01*
G37*
G54D13*
X26289Y25896D02*
X26279Y25906D01*
X26229Y25906D01*
X26209Y25886D01*
X26209Y25806D01*
X26229Y25786D01*
X26279Y25786D01*
X26289Y25796D01*
X26289Y25896D01*
G36*
X26464Y25871D02*
X26414Y25871D01*
X26414Y25821D01*
X26464Y25821D01*
X26464Y25871D01*
G37*
G54D14*
X25357Y26436D02*
X25174Y26436D01*
X24952Y26222D01*
G54D11*
X24920Y26222D02*
X24730Y26222D01*
G54D11*
X24682Y26634D02*
X24507Y26634D01*
G54D14*
X25357Y26309D02*
X25198Y26309D01*
X24984Y26063D01*
X24920Y25904D01*
G36*
X24777Y27220D02*
X24713Y27284D01*
X24621Y27284D01*
X24557Y27220D01*
X24557Y27128D01*
X24621Y27064D01*
X24713Y27064D01*
X24777Y27128D01*
X24777Y27220D01*
G37*
G36*
X25031Y25696D02*
X24967Y25760D01*
X24875Y25760D01*
X24811Y25696D01*
X24811Y25604D01*
X24875Y25540D01*
X24967Y25540D01*
X25031Y25604D01*
X25031Y25696D01*
G37*
G54D14*
X25364Y26238D02*
X25285Y26238D01*
X25142Y26095D01*
X25142Y25872D01*
X24920Y25650D01*
G36*
X25031Y25950D02*
X24967Y26014D01*
X24875Y26014D01*
X24811Y25950D01*
X24811Y25858D01*
X24875Y25794D01*
X24967Y25794D01*
X25031Y25858D01*
X25031Y25950D01*
G37*
G36*
X24777Y26966D02*
X24713Y27030D01*
X24621Y27030D01*
X24557Y26966D01*
X24557Y26874D01*
X24621Y26810D01*
X24713Y26810D01*
X24777Y26874D01*
X24777Y26966D01*
G37*
G54D14*
X25396Y26825D02*
X25142Y26825D01*
X24841Y27000D01*
X24722Y27119D01*
X24476Y27238D01*
X24222Y27238D01*
X24222Y26777D01*
X24476Y26603D01*
G54D14*
X25396Y26698D02*
X25174Y26698D01*
X24849Y26865D01*
X24666Y26920D01*
G36*
X24523Y26966D02*
X24459Y27030D01*
X24367Y27030D01*
X24303Y26966D01*
X24303Y26874D01*
X24367Y26810D01*
X24459Y26810D01*
X24523Y26874D01*
X24523Y26966D01*
G37*
G54D14*
X24920Y26603D02*
X24888Y26730D01*
X24730Y26730D01*
X24571Y26730D01*
X24412Y26920D01*
G54D14*
X24539Y26254D02*
X24539Y26158D01*
X24920Y25904D01*
G36*
X26809Y27220D02*
X26745Y27284D01*
X26653Y27284D01*
X26589Y27220D01*
X26589Y27128D01*
X26653Y27064D01*
X26745Y27064D01*
X26809Y27128D01*
X26809Y27220D01*
G37*
G36*
X24357Y27155D02*
X24337Y27175D01*
X24287Y27175D01*
X24277Y27165D01*
X24277Y27065D01*
X24287Y27055D01*
X24335Y27055D01*
X24357Y27075D01*
X24357Y27155D01*
G37*
G54D13*
X24357Y27155D02*
X24337Y27175D01*
X24287Y27175D01*
X24277Y27165D01*
X24277Y27065D01*
X24287Y27055D01*
X24335Y27055D01*
X24357Y27075D01*
X24357Y27155D01*
G36*
X24177Y27165D02*
X24167Y27175D01*
X24117Y27175D01*
X24097Y27155D01*
X24097Y27075D01*
X24117Y27055D01*
X24167Y27055D01*
X24177Y27065D01*
X24177Y27165D01*
G37*
G54D13*
X24177Y27165D02*
X24167Y27175D01*
X24117Y27175D01*
X24097Y27155D01*
X24097Y27075D01*
X24117Y27055D01*
X24167Y27055D01*
X24177Y27065D01*
X24177Y27165D01*
G36*
X24352Y27141D02*
X24302Y27141D01*
X24302Y27091D01*
X24352Y27091D01*
X24352Y27141D01*
G37*
G54D14*
X24666Y26920D02*
X24476Y27111D01*
X24317Y27111D01*
G36*
X26707Y26933D02*
X26687Y26953D01*
X26637Y26953D01*
X26627Y26943D01*
X26627Y26843D01*
X26637Y26833D01*
X26685Y26833D01*
X26707Y26853D01*
X26707Y26933D01*
G37*
G54D13*
X26707Y26933D02*
X26687Y26953D01*
X26637Y26953D01*
X26627Y26943D01*
X26627Y26843D01*
X26637Y26833D01*
X26685Y26833D01*
X26707Y26853D01*
X26707Y26933D01*
G36*
X26527Y26943D02*
X26517Y26953D01*
X26467Y26953D01*
X26447Y26933D01*
X26447Y26853D01*
X26467Y26833D01*
X26517Y26833D01*
X26527Y26843D01*
X26527Y26943D01*
G37*
G54D13*
X26527Y26943D02*
X26517Y26953D01*
X26467Y26953D01*
X26447Y26933D01*
X26447Y26853D01*
X26467Y26833D01*
X26517Y26833D01*
X26527Y26843D01*
X26527Y26943D01*
G36*
X26701Y26919D02*
X26651Y26919D01*
X26651Y26869D01*
X26701Y26869D01*
X26701Y26919D01*
G37*
G36*
X26689Y26663D02*
X26669Y26683D01*
X26619Y26683D01*
X26609Y26673D01*
X26609Y26573D01*
X26619Y26563D01*
X26669Y26563D01*
X26689Y26583D01*
X26689Y26663D01*
G37*
G54D13*
X26689Y26663D02*
X26669Y26683D01*
X26619Y26683D01*
X26609Y26673D01*
X26609Y26573D01*
X26619Y26563D01*
X26669Y26563D01*
X26689Y26583D01*
X26689Y26663D01*
G36*
X26509Y26673D02*
X26499Y26683D01*
X26449Y26683D01*
X26429Y26663D01*
X26429Y26583D01*
X26449Y26563D01*
X26499Y26563D01*
X26509Y26573D01*
X26509Y26673D01*
G37*
G54D13*
X26509Y26673D02*
X26499Y26683D01*
X26449Y26683D01*
X26429Y26663D01*
X26429Y26583D01*
X26449Y26563D01*
X26499Y26563D01*
X26509Y26573D01*
X26509Y26673D01*
G36*
X26685Y26649D02*
X26635Y26649D01*
X26635Y26599D01*
X26685Y26599D01*
X26685Y26649D01*
G37*
G54D11*
X26603Y25079D02*
X26603Y24920D01*
X26658Y24872D01*
X26714Y24872D01*
G54D11*
X27016Y25841D02*
X26873Y26015D01*
X26762Y26317D01*
G54D11*
X25428Y27174D02*
X25460Y27365D01*
X26952Y27365D01*
G54D15*
X27555Y25809D02*
X27619Y25476D01*
X27619Y24801D01*
X27555Y24571D01*
G54D11*
X26952Y27365D02*
X27238Y27083D01*
X27238Y26740D01*
X27365Y26634D01*
X27603Y26531D01*
X27603Y26269D01*
X27428Y26174D01*
X27301Y25968D01*
X27301Y25650D01*
X27301Y25198D01*
X27301Y25031D01*
X27079Y24872D01*
G36*
X26522Y24316D02*
X26436Y24316D01*
X26436Y24144D01*
X26522Y24144D01*
X26522Y24316D01*
G37*
G36*
X26649Y24316D02*
X26563Y24316D01*
X26563Y24144D01*
X26649Y24144D01*
X26649Y24316D01*
G37*
G36*
X26776Y24316D02*
X26690Y24316D01*
X26690Y24144D01*
X26776Y24144D01*
X26776Y24316D01*
G37*
G36*
X25633Y23293D02*
X25547Y23293D01*
X25547Y23121D01*
X25633Y23121D01*
X25633Y23293D01*
G37*
G36*
X25760Y23293D02*
X25674Y23293D01*
X25674Y23121D01*
X25760Y23121D01*
X25760Y23293D01*
G37*
G36*
X25887Y23293D02*
X25801Y23293D01*
X25801Y23121D01*
X25887Y23121D01*
X25887Y23293D01*
G37*
G36*
X26014Y23293D02*
X25928Y23293D01*
X25928Y23121D01*
X26014Y23121D01*
X26014Y23293D01*
G37*
G36*
X26141Y23293D02*
X26055Y23293D01*
X26055Y23121D01*
X26141Y23121D01*
X26141Y23293D01*
G37*
G36*
X26268Y23293D02*
X26182Y23293D01*
X26182Y23121D01*
X26268Y23121D01*
X26268Y23293D01*
G37*
G36*
X26395Y23293D02*
X26309Y23293D01*
X26309Y23121D01*
X26395Y23121D01*
X26395Y23293D01*
G37*
G36*
X25633Y24317D02*
X25547Y24317D01*
X25547Y24145D01*
X25633Y24145D01*
X25633Y24317D01*
G37*
G36*
X25760Y24317D02*
X25674Y24317D01*
X25674Y24145D01*
X25760Y24145D01*
X25760Y24317D01*
G37*
G36*
X25887Y24317D02*
X25801Y24317D01*
X25801Y24145D01*
X25887Y24145D01*
X25887Y24317D01*
G37*
G36*
X26014Y24317D02*
X25928Y24317D01*
X25928Y24145D01*
X26014Y24145D01*
X26014Y24317D01*
G37*
G36*
X26141Y24317D02*
X26055Y24317D01*
X26055Y24145D01*
X26141Y24145D01*
X26141Y24317D01*
G37*
G36*
X26268Y24317D02*
X26182Y24317D01*
X26182Y24145D01*
X26268Y24145D01*
X26268Y24317D01*
G37*
G36*
X26395Y24317D02*
X26309Y24317D01*
X26309Y24145D01*
X26395Y24145D01*
X26395Y24317D01*
G37*
G36*
X26522Y23293D02*
X26436Y23293D01*
X26436Y23121D01*
X26522Y23121D01*
X26522Y23293D01*
G37*
G36*
X26649Y23293D02*
X26563Y23293D01*
X26563Y23121D01*
X26649Y23121D01*
X26649Y23293D01*
G37*
G36*
X26776Y23293D02*
X26690Y23293D01*
X26690Y23121D01*
X26776Y23121D01*
X26776Y23293D01*
G37*
G36*
X25633Y24253D02*
X25547Y24253D01*
X25547Y24081D01*
X25633Y24081D01*
X25633Y24253D01*
G37*
G36*
X25760Y24253D02*
X25674Y24253D01*
X25674Y24081D01*
X25760Y24081D01*
X25760Y24253D01*
G37*
G36*
X25887Y24253D02*
X25801Y24253D01*
X25801Y24081D01*
X25887Y24081D01*
X25887Y24253D01*
G37*
G36*
X26014Y24253D02*
X25928Y24253D01*
X25928Y24081D01*
X26014Y24081D01*
X26014Y24253D01*
G37*
G36*
X26141Y24253D02*
X26055Y24253D01*
X26055Y24081D01*
X26141Y24081D01*
X26141Y24253D01*
G37*
G36*
X26268Y24253D02*
X26182Y24253D01*
X26182Y24081D01*
X26268Y24081D01*
X26268Y24253D01*
G37*
G36*
X26395Y24253D02*
X26309Y24253D01*
X26309Y24081D01*
X26395Y24081D01*
X26395Y24253D01*
G37*
G36*
X26522Y24253D02*
X26436Y24253D01*
X26436Y24081D01*
X26522Y24081D01*
X26522Y24253D01*
G37*
G36*
X26649Y24253D02*
X26563Y24253D01*
X26563Y24081D01*
X26649Y24081D01*
X26649Y24253D01*
G37*
G36*
X26776Y24253D02*
X26690Y24253D01*
X26690Y24081D01*
X26776Y24081D01*
X26776Y24253D01*
G37*
G36*
X25633Y23357D02*
X25547Y23357D01*
X25547Y23185D01*
X25633Y23185D01*
X25633Y23357D01*
G37*
G36*
X25760Y23357D02*
X25674Y23357D01*
X25674Y23185D01*
X25760Y23185D01*
X25760Y23357D01*
G37*
G36*
X25887Y23357D02*
X25801Y23357D01*
X25801Y23185D01*
X25887Y23185D01*
X25887Y23357D01*
G37*
G36*
X26014Y23357D02*
X25928Y23357D01*
X25928Y23185D01*
X26014Y23185D01*
X26014Y23357D01*
G37*
G36*
X26141Y23357D02*
X26055Y23357D01*
X26055Y23185D01*
X26141Y23185D01*
X26141Y23357D01*
G37*
G36*
X26268Y23357D02*
X26182Y23357D01*
X26182Y23185D01*
X26268Y23185D01*
X26268Y23357D01*
G37*
G36*
X26395Y23357D02*
X26309Y23357D01*
X26309Y23185D01*
X26395Y23185D01*
X26395Y23357D01*
G37*
G36*
X26522Y23357D02*
X26436Y23357D01*
X26436Y23185D01*
X26522Y23185D01*
X26522Y23357D01*
G37*
G36*
X26649Y23357D02*
X26563Y23357D01*
X26563Y23185D01*
X26649Y23185D01*
X26649Y23357D01*
G37*
G36*
X26776Y23357D02*
X26690Y23357D01*
X26690Y23185D01*
X26776Y23185D01*
X26776Y23357D01*
G37*
X23868Y27088D02*
G54D16*
D03*
X23868Y26488D02*
G54D16*
D03*
G54D14*
X25301Y24793D02*
X25492Y24634D01*
X25492Y24476D01*
X25380Y24360D01*
X25079Y24356D01*
X24920Y24194D01*
X24920Y24017D01*
G54D17*
X26349Y24158D02*
X26349Y23999D01*
X26269Y23920D01*
X25206Y23920D01*
X25110Y24005D01*
X25110Y24202D01*
X25174Y24277D01*
X25420Y24281D01*
X25587Y24460D01*
X25587Y24658D01*
X25484Y24801D01*
X25480Y24888D01*
X25372Y24968D01*
X25222Y24968D01*
X25047Y24793D01*
G54D17*
X26603Y24190D02*
X26603Y23999D01*
X26436Y23825D01*
X24777Y23825D01*
X24714Y23888D01*
X24714Y24126D01*
X24833Y24261D01*
X25047Y24539D01*
G54D14*
X25968Y24285D02*
X25968Y24380D01*
X26142Y24523D01*
X26144Y24626D01*
X26001Y24765D01*
X26002Y24904D01*
X25907Y24999D01*
X25757Y24999D01*
X25687Y24952D01*
X25529Y24952D01*
X25388Y25047D01*
X25200Y25047D01*
X25046Y24968D01*
X24733Y24968D01*
X24539Y24793D01*
G54D14*
X26095Y23301D02*
X26095Y23539D01*
X25904Y23729D01*
X24698Y23729D01*
X24587Y23840D01*
X24587Y24148D01*
X24634Y24233D01*
X24634Y24388D01*
X24539Y24539D01*
G54D14*
X24158Y27111D02*
X24047Y27238D01*
X23862Y27270D01*
X23741Y27238D01*
X23648Y27158D01*
X23491Y26746D01*
X23491Y24634D01*
X23491Y23936D01*
X23606Y23825D01*
X23880Y23824D01*
X24015Y23935D01*
X24017Y24173D01*
X24059Y24237D01*
X24126Y24284D01*
X24214Y24299D01*
X24317Y24251D01*
X24372Y24179D01*
X24380Y24091D01*
X24380Y23706D01*
X24412Y23491D01*
G54D14*
X26714Y24253D02*
X26714Y24348D01*
X26619Y24444D01*
X26476Y24444D01*
X26476Y24285D01*
G54D14*
X25841Y24285D02*
X25841Y24436D01*
X25936Y24587D01*
G54D14*
X25968Y23332D02*
X25968Y23475D01*
X25801Y23634D01*
X24587Y23634D01*
X24476Y23755D01*
X24479Y24161D01*
X24427Y24256D01*
X24343Y24336D01*
X24253Y24376D01*
X24164Y24368D01*
X24079Y24352D01*
X23987Y24289D01*
X23940Y24225D01*
X23942Y24003D01*
X23844Y23908D01*
X23675Y23908D01*
X23586Y23987D01*
X23586Y26583D01*
X23714Y26714D01*
X24023Y26714D01*
X24301Y26523D01*
X24825Y26523D01*
X24920Y26444D01*
G54D14*
X26222Y23269D02*
X26222Y23463D01*
X26388Y23624D01*
X26677Y23624D01*
X26982Y23434D01*
X27099Y23435D01*
X27238Y23720D01*
X27238Y23878D01*
X26873Y24052D01*
X26873Y24289D01*
X26738Y24445D01*
X26682Y24539D01*
X26508Y24539D01*
X26206Y24841D01*
X26206Y25380D01*
X26063Y25523D01*
X25944Y25523D01*
X25777Y25396D01*
X25571Y25396D01*
X25313Y25523D01*
X25214Y25476D01*
X24841Y25476D01*
X24730Y25593D01*
X24730Y25916D01*
X24444Y26113D01*
X24396Y26131D01*
X24348Y26182D01*
X24348Y26333D01*
X24587Y26333D01*
X24682Y26428D01*
G54D14*
X25428Y25650D02*
X25587Y25476D01*
X25746Y25476D01*
X25904Y25618D01*
X26142Y25618D01*
X26309Y25452D01*
X26309Y24896D01*
X26539Y24634D01*
X26714Y24634D01*
X26809Y24565D01*
X26809Y24464D01*
X26984Y24293D01*
X26984Y24136D01*
X27333Y23964D01*
X27333Y23696D01*
X27158Y23332D01*
X26936Y23332D01*
X26714Y23475D01*
X26476Y23475D01*
X26476Y23269D01*
X25317Y24110D02*
G54D18*
D03*
G54D11*
X26746Y23221D02*
X27254Y23221D01*
X27444Y23634D01*
X27444Y24110D01*
X27555Y24341D01*
X27555Y24555D01*
G54D11*
X25174Y27174D02*
X25079Y27365D01*
X23864Y27365D01*
X23666Y27333D01*
X23523Y27206D01*
X23396Y26833D01*
X23396Y23856D01*
X23539Y23714D01*
X23948Y23714D01*
X24166Y23920D01*
X24190Y24126D01*
G54D17*
X26222Y24190D02*
X26222Y24047D01*
X26190Y24015D01*
X25460Y24015D01*
X25333Y24126D01*
X24190Y24126D02*
G54D18*
D03*
X24920Y24015D02*
G54D18*
D03*
X24920Y23364D02*
G54D18*
D03*
G54D14*
X25714Y23332D02*
X25714Y23380D01*
X25650Y23444D01*
X25492Y23444D01*
X25428Y23396D01*
G36*
X24519Y25237D02*
X24439Y25237D01*
X24439Y25077D01*
X24519Y25077D01*
X24519Y25237D01*
G37*
G36*
X24392Y25237D02*
X24312Y25237D01*
X24312Y25077D01*
X24392Y25077D01*
X24392Y25237D01*
G37*
G36*
X24265Y25237D02*
X24185Y25237D01*
X24185Y25077D01*
X24265Y25077D01*
X24265Y25237D01*
G37*
G36*
X24138Y25237D02*
X24058Y25237D01*
X24058Y25077D01*
X24138Y25077D01*
X24138Y25237D01*
G37*
G36*
X24011Y25237D02*
X23931Y25237D01*
X23931Y25077D01*
X24011Y25077D01*
X24011Y25237D01*
G37*
G36*
X23884Y25237D02*
X23804Y25237D01*
X23804Y25077D01*
X23884Y25077D01*
X23884Y25237D01*
G37*
G36*
X23757Y25237D02*
X23677Y25237D01*
X23677Y25077D01*
X23757Y25077D01*
X23757Y25237D01*
G37*
G36*
X24519Y25788D02*
X24439Y25788D01*
X24439Y25628D01*
X24519Y25628D01*
X24519Y25788D01*
G37*
G36*
X24392Y25788D02*
X24312Y25788D01*
X24312Y25628D01*
X24392Y25628D01*
X24392Y25788D01*
G37*
G36*
X24265Y25788D02*
X24185Y25788D01*
X24185Y25628D01*
X24265Y25628D01*
X24265Y25788D01*
G37*
G36*
X24138Y25788D02*
X24058Y25788D01*
X24058Y25628D01*
X24138Y25628D01*
X24138Y25788D01*
G37*
G36*
X24011Y25788D02*
X23931Y25788D01*
X23931Y25628D01*
X24011Y25628D01*
X24011Y25788D01*
G37*
G36*
X23884Y25788D02*
X23804Y25788D01*
X23804Y25628D01*
X23884Y25628D01*
X23884Y25788D01*
G37*
G36*
X23757Y25788D02*
X23677Y25788D01*
X23677Y25628D01*
X23757Y25628D01*
X23757Y25788D01*
G37*
G54D11*
X24221Y25734D02*
X24094Y25734D01*
G54D14*
X24348Y25671D02*
X24348Y25877D01*
X24158Y26116D01*
X23967Y26116D01*
X23840Y25988D01*
X23840Y25671D01*
G54D11*
X24348Y25131D02*
X24221Y25131D01*
G54D19*
X23840Y25131D02*
X24094Y25131D01*
G54D14*
X24793Y24793D02*
X24666Y24666D01*
X24412Y24666D01*
X24364Y24714D01*
X24364Y24920D01*
G36*
X24639Y24878D02*
X24439Y24878D01*
X24439Y24708D01*
X24639Y24708D01*
X24639Y24878D01*
G37*
G36*
X24639Y24624D02*
X24439Y24624D01*
X24439Y24454D01*
X24639Y24454D01*
X24639Y24624D01*
G37*
G54D14*
X26095Y24285D02*
X26095Y24380D01*
X26238Y24468D01*
X26238Y24666D01*
X26095Y24809D01*
X26095Y24968D01*
X25980Y25079D01*
X25738Y25079D01*
X25682Y25142D01*
X25563Y25142D01*
X25467Y25186D01*
X25368Y25253D01*
X25238Y25206D01*
X25174Y25134D01*
X25031Y25063D01*
X24714Y25063D01*
X24602Y24984D01*
X24476Y24984D01*
X24364Y24920D01*
X25952Y25317D02*
G54D10*
D03*
X25952Y24579D02*
G54D10*
D03*
G54D14*
X24476Y26428D02*
X24301Y26428D01*
X24253Y26384D01*
X24253Y26150D01*
X24333Y26053D01*
X24634Y25845D01*
X24634Y25555D01*
X24801Y25380D01*
X25093Y25380D01*
X25317Y25420D01*
X25523Y25325D01*
X25817Y25325D01*
X25952Y25317D01*
G36*
X24305Y24611D02*
X24305Y24691D01*
X24149Y24691D01*
X24149Y24611D01*
X24305Y24611D01*
G37*
G36*
X24305Y24960D02*
X24305Y25040D01*
X24149Y25040D01*
X24149Y24960D01*
X24305Y24960D01*
G37*
G54D11*
X24222Y24984D02*
X24222Y25142D01*
G54D11*
X24094Y25746D02*
X24094Y25936D01*
G36*
X24503Y24281D02*
X24523Y24261D01*
X24573Y24261D01*
X24583Y24271D01*
X24583Y24371D01*
X24573Y24381D01*
X24523Y24381D01*
X24503Y24361D01*
X24503Y24281D01*
G37*
G54D13*
X24503Y24281D02*
X24523Y24261D01*
X24573Y24261D01*
X24583Y24271D01*
X24583Y24371D01*
X24573Y24381D01*
X24523Y24381D01*
X24503Y24361D01*
X24503Y24281D01*
G36*
X24683Y24271D02*
X24693Y24261D01*
X24743Y24261D01*
X24763Y24281D01*
X24763Y24361D01*
X24743Y24381D01*
X24693Y24381D01*
X24683Y24371D01*
X24683Y24271D01*
G37*
G54D13*
X24683Y24271D02*
X24693Y24261D01*
X24743Y24261D01*
X24763Y24281D01*
X24763Y24361D01*
X24743Y24381D01*
X24693Y24381D01*
X24683Y24371D01*
X24683Y24271D01*
G36*
X24507Y24295D02*
X24557Y24295D01*
X24557Y24345D01*
X24507Y24345D01*
X24507Y24295D01*
G37*
G54D14*
X24730Y24317D02*
X24793Y24539D01*
G54D20*
X24539Y24317D02*
X24364Y24428D01*
X24285Y24539D01*
X27388Y26415D02*
G54D21*
D03*
X27388Y26165D02*
G54D21*
D03*
G54D11*
X25587Y23269D02*
X25166Y23269D01*
G36*
X23904Y24784D02*
X23904Y24674D01*
X24034Y24674D01*
X24034Y24784D01*
X23904Y24784D01*
G37*
G36*
X23904Y24594D02*
X23904Y24484D01*
X24034Y24484D01*
X24034Y24594D01*
X23904Y24594D01*
G37*
G36*
X23730Y24784D02*
X23730Y24674D01*
X23860Y24674D01*
X23860Y24784D01*
X23730Y24784D01*
G37*
G36*
X23730Y24594D02*
X23730Y24484D01*
X23860Y24484D01*
X23860Y24594D01*
X23730Y24594D01*
G37*
X24063Y24915D02*
G54D22*
D03*
G36*
X24138Y25020D02*
X23988Y25020D01*
X23988Y24820D01*
X24138Y24820D01*
X24138Y25020D01*
G37*
G54D15*
X24063Y24920D02*
X24237Y24968D01*
X23856Y24396D02*
G54D23*
D03*
G54D11*
X23809Y24730D02*
X23714Y24952D01*
X23714Y25142D01*
G54D11*
X23952Y24745D02*
X23908Y24886D01*
X23907Y25220D01*
X27039Y26415D02*
G54D21*
D03*
X27039Y26165D02*
G54D21*
D03*
G54D11*
X27047Y26158D02*
X27428Y26158D01*
G54D20*
X27428Y26412D02*
X27127Y26634D01*
X27079Y26634D01*
X26920Y26571D01*
X26825Y26603D01*
X26666Y26777D01*
X26666Y26888D01*
X26915Y26775D02*
G54D16*
D03*
X27515Y26775D02*
G54D16*
D03*
G54D11*
X27079Y26412D02*
X26730Y26523D01*
X26650Y26619D01*
G54D20*
X27508Y26777D02*
X27698Y26650D01*
X27698Y26095D01*
X27555Y25825D01*
G36*
X24641Y23535D02*
X24621Y23555D01*
X24571Y23555D01*
X24561Y23545D01*
X24561Y23445D01*
X24571Y23435D01*
X24621Y23435D01*
X24641Y23455D01*
X24641Y23535D01*
G37*
G54D13*
X24641Y23535D02*
X24621Y23555D01*
X24571Y23555D01*
X24561Y23545D01*
X24561Y23445D01*
X24571Y23435D01*
X24621Y23435D01*
X24641Y23455D01*
X24641Y23535D01*
G36*
X24461Y23545D02*
X24451Y23555D01*
X24401Y23555D01*
X24381Y23535D01*
X24381Y23455D01*
X24401Y23435D01*
X24451Y23435D01*
X24461Y23445D01*
X24461Y23545D01*
G37*
G54D13*
X24461Y23545D02*
X24451Y23555D01*
X24401Y23555D01*
X24381Y23535D01*
X24381Y23455D01*
X24401Y23435D01*
X24451Y23435D01*
X24461Y23445D01*
X24461Y23545D01*
G36*
X24637Y23522D02*
X24587Y23522D01*
X24587Y23472D01*
X24637Y23472D01*
X24637Y23522D01*
G37*
G54D14*
X25841Y23301D02*
X25841Y23412D01*
X25714Y23539D01*
X25476Y23539D01*
X25368Y23539D01*
X25134Y23539D01*
X24730Y23539D01*
X24634Y23491D01*
G54D14*
X24602Y23491D02*
X24444Y23491D01*
G54D11*
X23714Y25746D02*
X23714Y26254D01*
X23872Y26476D01*
G54D14*
X23983Y24539D02*
X23825Y24539D01*
X23761Y24094D02*
G54D10*
D03*
G54D14*
X23761Y24094D02*
X23666Y24237D01*
X23666Y24682D01*
X23809Y24745D01*
X23761Y23491D02*
G54D10*
D03*
G36*
X24625Y25373D02*
X24605Y25353D01*
X24605Y25303D01*
X24615Y25293D01*
X24715Y25293D01*
X24725Y25303D01*
X24725Y25351D01*
X24705Y25373D01*
X24625Y25373D01*
G37*
G54D13*
X24625Y25373D02*
X24605Y25353D01*
X24605Y25303D01*
X24615Y25293D01*
X24715Y25293D01*
X24725Y25303D01*
X24725Y25351D01*
X24705Y25373D01*
X24625Y25373D01*
G36*
X24615Y25193D02*
X24605Y25183D01*
X24605Y25133D01*
X24625Y25113D01*
X24705Y25113D01*
X24725Y25133D01*
X24725Y25183D01*
X24715Y25193D01*
X24615Y25193D01*
G37*
G54D13*
X24615Y25193D02*
X24605Y25183D01*
X24605Y25133D01*
X24625Y25113D01*
X24705Y25113D01*
X24725Y25133D01*
X24725Y25183D01*
X24715Y25193D01*
X24615Y25193D01*
G36*
X24640Y25368D02*
X24640Y25318D01*
X24690Y25318D01*
X24690Y25368D01*
X24640Y25368D01*
G37*
G36*
X24837Y25203D02*
X24857Y25183D01*
X24907Y25183D01*
X24917Y25193D01*
X24917Y25293D01*
X24907Y25303D01*
X24859Y25303D01*
X24837Y25283D01*
X24837Y25203D01*
G37*
G54D13*
X24837Y25203D02*
X24857Y25183D01*
X24907Y25183D01*
X24917Y25193D01*
X24917Y25293D01*
X24907Y25303D01*
X24859Y25303D01*
X24837Y25283D01*
X24837Y25203D01*
G36*
X25017Y25193D02*
X25027Y25183D01*
X25077Y25183D01*
X25097Y25203D01*
X25097Y25283D01*
X25077Y25303D01*
X25027Y25303D01*
X25017Y25293D01*
X25017Y25193D01*
G37*
G54D13*
X25017Y25193D02*
X25027Y25183D01*
X25077Y25183D01*
X25097Y25203D01*
X25097Y25283D01*
X25077Y25303D01*
X25027Y25303D01*
X25017Y25293D01*
X25017Y25193D01*
G36*
X24842Y25218D02*
X24892Y25218D01*
X24892Y25268D01*
X24842Y25268D01*
X24842Y25218D01*
G37*
G54D11*
X23968Y25682D02*
X23968Y25523D01*
X24063Y25428D01*
X24317Y25428D01*
G54D24*
X24476Y25714D02*
X24476Y25523D01*
X24666Y25333D01*
G54D11*
X24634Y25142D02*
X24476Y25142D01*
G54D14*
X24825Y25245D02*
X24587Y25245D01*
X24491Y25333D01*
X24301Y25428D01*
G54D14*
X25063Y25222D02*
X25015Y25134D01*
X24674Y25134D01*
G36*
X23972Y27020D02*
X23772Y27020D01*
X23772Y26820D01*
X23972Y26820D01*
X23972Y27020D01*
G37*
G36*
X27116Y27052D02*
X26916Y27052D01*
X26916Y26852D01*
X27116Y26852D01*
X27116Y27052D01*
G37*
G54D14*
X23968Y24539D02*
X23968Y24730D01*
G36*
X25219Y25335D02*
X25207Y25309D01*
X25224Y25262D01*
X25237Y25256D01*
X25331Y25291D01*
X25337Y25303D01*
X25321Y25349D01*
X25294Y25362D01*
X25219Y25335D01*
G37*
G54D13*
X25219Y25335D02*
X25207Y25309D01*
X25224Y25262D01*
X25237Y25256D01*
X25331Y25291D01*
X25337Y25303D01*
X25321Y25349D01*
X25294Y25362D01*
X25219Y25335D01*
G36*
X25271Y25162D02*
X25264Y25149D01*
X25282Y25103D01*
X25308Y25091D01*
X25383Y25118D01*
X25395Y25144D01*
X25378Y25191D01*
X25365Y25197D01*
X25271Y25162D01*
G37*
G54D13*
X25271Y25162D02*
X25264Y25149D01*
X25282Y25103D01*
X25308Y25091D01*
X25383Y25118D01*
X25395Y25144D01*
X25378Y25191D01*
X25365Y25197D01*
X25271Y25162D01*
G36*
X25234Y25335D02*
X25251Y25288D01*
X25298Y25306D01*
X25281Y25353D01*
X25234Y25335D01*
G37*
G54D14*
X25047Y25253D02*
X25261Y25309D01*
G36*
X25642Y24820D02*
X25662Y24840D01*
X25662Y24890D01*
X25652Y24900D01*
X25552Y24900D01*
X25542Y24890D01*
X25542Y24842D01*
X25562Y24820D01*
X25642Y24820D01*
G37*
G54D13*
X25642Y24820D02*
X25662Y24840D01*
X25662Y24890D01*
X25652Y24900D01*
X25552Y24900D01*
X25542Y24890D01*
X25542Y24842D01*
X25562Y24820D01*
X25642Y24820D01*
G36*
X25652Y25000D02*
X25662Y25010D01*
X25662Y25060D01*
X25642Y25080D01*
X25562Y25080D01*
X25542Y25060D01*
X25542Y25010D01*
X25552Y25000D01*
X25652Y25000D01*
G37*
G54D13*
X25652Y25000D02*
X25662Y25010D01*
X25662Y25060D01*
X25642Y25080D01*
X25562Y25080D01*
X25542Y25060D01*
X25542Y25010D01*
X25552Y25000D01*
X25652Y25000D01*
G36*
X25627Y24824D02*
X25627Y24874D01*
X25577Y24874D01*
X25577Y24824D01*
X25627Y24824D01*
G37*
G54D14*
X25587Y25031D02*
X25349Y25158D01*
G54D14*
X25587Y24285D02*
X25587Y24333D01*
X25682Y24460D01*
X25682Y24698D01*
X25603Y24856D01*
G54D14*
X25714Y24285D02*
X25714Y24348D01*
X25761Y24444D01*
X25761Y24642D01*
X25825Y24825D01*
X25825Y24825D02*
G54D23*
D03*
X24047Y26317D02*
G54D10*
D03*
G54D15*
X24031Y26317D02*
X23872Y26476D01*
X26746Y26317D02*
G54D10*
D03*
G54D14*
X23936Y26920D02*
X23936Y27079D01*
G36*
X26667Y24796D02*
X26747Y24796D01*
X26747Y24952D01*
X26667Y24952D01*
X26667Y24796D01*
G37*
G36*
X27016Y24796D02*
X27096Y24796D01*
X27096Y24952D01*
X27016Y24952D01*
X27016Y24796D01*
G37*
G36*
X27368Y26950D02*
X27348Y26970D01*
X27298Y26970D01*
X27288Y26960D01*
X27288Y26860D01*
X27298Y26850D01*
X27348Y26850D01*
X27368Y26870D01*
X27368Y26950D01*
G37*
G54D13*
X27368Y26950D02*
X27348Y26970D01*
X27298Y26970D01*
X27288Y26960D01*
X27288Y26860D01*
X27298Y26850D01*
X27348Y26850D01*
X27368Y26870D01*
X27368Y26950D01*
G36*
X27188Y26960D02*
X27178Y26970D01*
X27128Y26970D01*
X27108Y26950D01*
X27108Y26870D01*
X27128Y26850D01*
X27178Y26850D01*
X27188Y26860D01*
X27188Y26960D01*
G37*
G54D13*
X27188Y26960D02*
X27178Y26970D01*
X27128Y26970D01*
X27108Y26950D01*
X27108Y26870D01*
X27128Y26850D01*
X27178Y26850D01*
X27188Y26860D01*
X27188Y26960D01*
G36*
X27363Y26935D02*
X27313Y26935D01*
X27313Y26885D01*
X27363Y26885D01*
X27363Y26935D01*
G37*
G36*
X23821Y26843D02*
X23801Y26823D01*
X23801Y26773D01*
X23811Y26763D01*
X23911Y26763D01*
X23921Y26773D01*
X23921Y26823D01*
X23901Y26843D01*
X23821Y26843D01*
G37*
G54D13*
X23821Y26843D02*
X23801Y26823D01*
X23801Y26773D01*
X23811Y26763D01*
X23911Y26763D01*
X23921Y26773D01*
X23921Y26823D01*
X23901Y26843D01*
X23821Y26843D01*
G36*
X23811Y26663D02*
X23801Y26653D01*
X23801Y26603D01*
X23821Y26583D01*
X23901Y26583D01*
X23921Y26603D01*
X23921Y26653D01*
X23911Y26663D01*
X23811Y26663D01*
G37*
G54D13*
X23811Y26663D02*
X23801Y26653D01*
X23801Y26603D01*
X23821Y26583D01*
X23901Y26583D01*
X23921Y26603D01*
X23921Y26653D01*
X23911Y26663D01*
X23811Y26663D01*
G36*
X23837Y26838D02*
X23837Y26788D01*
X23887Y26788D01*
X23887Y26838D01*
X23837Y26838D01*
G37*
G54D11*
X27508Y26777D02*
X27317Y26904D01*
G36*
X26868Y23668D02*
X27067Y23575D01*
X27152Y23756D01*
X26952Y23849D01*
X26868Y23668D01*
G37*
G36*
X27136Y24243D02*
X27336Y24150D01*
X27420Y24332D01*
X27221Y24425D01*
X27136Y24243D01*
G37*
G54D11*
X26730Y24158D02*
X26730Y23872D01*
X27079Y23714D01*
G54D20*
X27047Y24888D02*
X27301Y24730D01*
X27301Y24317D01*
G54D25*
X23777Y23491D02*
X23904Y23301D01*
X24650Y23301D01*
G36*
X24551Y25518D02*
X24481Y25447D01*
X24622Y25306D01*
X24693Y25376D01*
X24551Y25518D01*
G37*
G36*
X24916Y25305D02*
X24766Y25305D01*
X24766Y25185D01*
X24916Y25185D01*
X24916Y25305D01*
G37*
G54D14*
X25301Y25301D02*
X25388Y25317D01*
X25523Y25238D01*
X25714Y25238D01*
X25793Y25158D01*
X26063Y25158D01*
G36*
X27354Y25274D02*
X27154Y25274D01*
X27154Y25074D01*
X27354Y25074D01*
X27354Y25274D01*
G37*
G36*
X26126Y25253D02*
X26047Y25174D01*
X26047Y25126D01*
X26126Y25047D01*
X26126Y25253D01*
G37*
G54D14*
X26126Y25253D02*
X26047Y25174D01*
X26047Y25126D01*
X26126Y25047D01*
X26126Y25253D01*
G54D11*
X24920Y23366D02*
X25134Y23397D01*
X25428Y23396D01*
G54D11*
X26444Y27174D02*
X26476Y26984D01*
X26476Y26888D01*
G54D11*
X26698Y27174D02*
X26571Y27016D01*
G54D11*
X25682Y27174D02*
X25746Y26968D01*
X25888Y26825D01*
G36*
X23877Y26322D02*
X23677Y26322D01*
X23677Y26122D01*
X23877Y26122D01*
X23877Y26322D01*
G37*
G36*
X27432Y25853D02*
X27412Y25873D01*
X27362Y25873D01*
X27352Y25863D01*
X27352Y25763D01*
X27362Y25753D01*
X27410Y25753D01*
X27432Y25773D01*
X27432Y25853D01*
G37*
G54D13*
X27432Y25853D02*
X27412Y25873D01*
X27362Y25873D01*
X27352Y25863D01*
X27352Y25763D01*
X27362Y25753D01*
X27410Y25753D01*
X27432Y25773D01*
X27432Y25853D01*
G36*
X27252Y25863D02*
X27242Y25873D01*
X27192Y25873D01*
X27172Y25853D01*
X27172Y25773D01*
X27192Y25753D01*
X27242Y25753D01*
X27252Y25763D01*
X27252Y25863D01*
G37*
G54D13*
X27252Y25863D02*
X27242Y25873D01*
X27192Y25873D01*
X27172Y25853D01*
X27172Y25773D01*
X27192Y25753D01*
X27242Y25753D01*
X27252Y25763D01*
X27252Y25863D01*
G36*
X27426Y25840D02*
X27376Y25840D01*
X27376Y25790D01*
X27426Y25790D01*
X27426Y25840D01*
G37*
G54D14*
X24650Y23301D02*
X24769Y23206D01*
X25063Y23206D01*
X25166Y23269D01*
G36*
X25589Y24290D02*
X25489Y24290D01*
X25489Y24090D01*
X25589Y24090D01*
X25589Y24290D01*
G37*
G54D14*
X25492Y23245D02*
X25492Y23181D01*
G54D14*
X25271Y26959D02*
X25271Y26959D01*
X25334Y26959D01*
G54D14*
X24476Y25841D02*
X24476Y25841D01*
X24476Y25777D01*
G54D14*
X24952Y26444D02*
X24952Y26603D01*
G54D14*
X24730Y26412D02*
X24730Y26254D01*
G36*
X26670Y26442D02*
X26650Y26462D01*
X26600Y26462D01*
X26590Y26452D01*
X26590Y26352D01*
X26600Y26342D01*
X26650Y26342D01*
X26670Y26362D01*
X26670Y26442D01*
G37*
G54D13*
X26670Y26442D02*
X26650Y26462D01*
X26600Y26462D01*
X26590Y26452D01*
X26590Y26352D01*
X26600Y26342D01*
X26650Y26342D01*
X26670Y26362D01*
X26670Y26442D01*
G36*
X26490Y26452D02*
X26480Y26462D01*
X26430Y26462D01*
X26410Y26442D01*
X26410Y26362D01*
X26430Y26342D01*
X26480Y26342D01*
X26490Y26352D01*
X26490Y26452D01*
G37*
G54D13*
X26490Y26452D02*
X26480Y26462D01*
X26430Y26462D01*
X26410Y26442D01*
X26410Y26362D01*
X26430Y26342D01*
X26480Y26342D01*
X26490Y26352D01*
X26490Y26452D01*
G36*
X26664Y26427D02*
X26614Y26427D01*
X26614Y26377D01*
X26664Y26377D01*
X26664Y26427D01*
G37*
G54D14*
X26206Y26508D02*
X26619Y26508D01*
X26627Y26396D01*
X26730Y26317D01*
G54D14*
X26365Y26285D02*
X26547Y26285D01*
X26730Y26317D01*
G54D14*
X26222Y26436D02*
X26325Y26436D01*
X26428Y26404D01*
G36*
X27559Y25648D02*
X27539Y25668D01*
X27489Y25668D01*
X27479Y25658D01*
X27479Y25558D01*
X27489Y25548D01*
X27539Y25548D01*
X27559Y25568D01*
X27559Y25648D01*
G37*
G54D13*
X27559Y25648D02*
X27539Y25668D01*
X27489Y25668D01*
X27479Y25658D01*
X27479Y25558D01*
X27489Y25548D01*
X27539Y25548D01*
X27559Y25568D01*
X27559Y25648D01*
G36*
X27379Y25658D02*
X27369Y25668D01*
X27319Y25668D01*
X27299Y25648D01*
X27299Y25568D01*
X27319Y25548D01*
X27369Y25548D01*
X27379Y25558D01*
X27379Y25658D01*
G37*
G54D13*
X27379Y25658D02*
X27369Y25668D01*
X27319Y25668D01*
X27299Y25648D01*
X27299Y25568D01*
X27319Y25548D01*
X27369Y25548D01*
X27379Y25558D01*
X27379Y25658D01*
G36*
X27553Y25633D02*
X27503Y25633D01*
X27503Y25583D01*
X27553Y25583D01*
X27553Y25633D01*
G37*
G54D20*
X26825Y25110D02*
X26952Y25110D01*
X27047Y25206D01*
X27047Y25460D01*
G54D20*
X26825Y25079D02*
X26825Y24761D01*
X26825Y24730D01*
X26634Y24730D01*
X26412Y24952D01*
X26412Y25841D01*
G54D14*
X26539Y26190D02*
X26539Y25920D01*
X26571Y25849D01*
X26571Y25781D01*
G54D11*
X26809Y25317D02*
X26809Y25539D01*
X26730Y25650D01*
X26730Y25872D01*
X26619Y26015D01*
G54D11*
X26587Y25317D02*
X26571Y25460D01*
X26571Y25781D01*
G54D15*
X27047Y24555D02*
X26825Y24730D01*
G54D15*
X27047Y25841D02*
X27047Y25460D01*
G36*
X25020Y24099D02*
X24820Y24099D01*
X24820Y23899D01*
X25020Y23899D01*
X25020Y24099D01*
G37*
G36*
X25020Y23464D02*
X24820Y23464D01*
X24820Y23264D01*
X25020Y23264D01*
X25020Y23464D01*
G37*
X25317Y24110D02*
G54D23*
D03*
X24190Y24126D02*
G54D23*
D03*
G36*
X24285Y23841D02*
X24285Y23428D01*
X24031Y23428D01*
X23968Y23428D01*
X23968Y23618D01*
X23999Y23618D01*
X24285Y23841D01*
G37*
G54D14*
X24285Y23841D02*
X24285Y23428D01*
X24031Y23428D01*
X23968Y23428D01*
X23968Y23618D01*
X23999Y23618D01*
X24285Y23841D01*
X24126Y23650D02*
G54D26*
D03*
G36*
X26868Y23700D02*
X27067Y23607D01*
X27152Y23788D01*
X26952Y23881D01*
X26868Y23700D01*
G37*
G36*
X27104Y24212D02*
X27304Y24119D01*
X27388Y24300D01*
X27189Y24393D01*
X27104Y24212D01*
G37*
%LNAUGENFREISTANZEN*%
%LPC*%
X24063Y25931D02*
G54D14*
D03*
X25302Y24539D02*
G54D14*
D03*
X25048Y24539D02*
G54D14*
D03*
X24794Y24539D02*
G54D14*
D03*
X25302Y24793D02*
G54D14*
D03*
X25048Y24793D02*
G54D14*
D03*
X24794Y24793D02*
G54D14*
D03*
X24539Y24793D02*
G54D14*
D03*
X24539Y24539D02*
G54D14*
D03*
X24285Y24539D02*
G54D14*
D03*
X26587Y25316D02*
G54D14*
D03*
X26809Y25316D02*
G54D14*
D03*
X26809Y25094D02*
G54D14*
D03*
X26587Y25094D02*
G54D14*
D03*
X27047Y25824D02*
G54D14*
D03*
X27047Y24554D02*
G54D14*
D03*
X27555Y25824D02*
G54D14*
D03*
X27555Y24554D02*
G54D14*
D03*
X26191Y25904D02*
G54D14*
D03*
X25175Y25650D02*
G54D14*
D03*
X25937Y27174D02*
G54D14*
D03*
X25683Y27174D02*
G54D14*
D03*
X26191Y27174D02*
G54D14*
D03*
X26445Y27174D02*
G54D14*
D03*
X25175Y27174D02*
G54D14*
D03*
X24921Y27174D02*
G54D14*
D03*
X25429Y27174D02*
G54D14*
D03*
X25937Y25904D02*
G54D14*
D03*
X25683Y25650D02*
G54D14*
D03*
X25429Y25650D02*
G54D14*
D03*
X25429Y25904D02*
G54D14*
D03*
X24667Y27174D02*
G54D14*
D03*
X24921Y25650D02*
G54D14*
D03*
X24921Y25904D02*
G54D14*
D03*
X24667Y26920D02*
G54D14*
D03*
X24413Y26920D02*
G54D14*
D03*
X26699Y27174D02*
G54D14*
D03*
X26479Y24230D02*
G54D14*
D03*
X26606Y24230D02*
G54D14*
D03*
X26733Y24230D02*
G54D14*
D03*
X25590Y23207D02*
G54D14*
D03*
X25717Y23207D02*
G54D14*
D03*
X25844Y23207D02*
G54D14*
D03*
X25971Y23207D02*
G54D14*
D03*
X26098Y23207D02*
G54D14*
D03*
X26225Y23207D02*
G54D14*
D03*
X26352Y23207D02*
G54D14*
D03*
X25590Y24231D02*
G54D14*
D03*
X25717Y24231D02*
G54D14*
D03*
X25844Y24231D02*
G54D14*
D03*
X25971Y24231D02*
G54D14*
D03*
X26098Y24231D02*
G54D14*
D03*
X26225Y24231D02*
G54D14*
D03*
X26352Y24231D02*
G54D14*
D03*
X26479Y23207D02*
G54D14*
D03*
X26606Y23207D02*
G54D14*
D03*
X26733Y23207D02*
G54D14*
D03*
X25590Y24167D02*
G54D14*
D03*
X25717Y24167D02*
G54D14*
D03*
X25844Y24167D02*
G54D14*
D03*
X25971Y24167D02*
G54D14*
D03*
X26098Y24167D02*
G54D14*
D03*
X26225Y24167D02*
G54D14*
D03*
X26352Y24167D02*
G54D14*
D03*
X26479Y24167D02*
G54D14*
D03*
X26606Y24167D02*
G54D14*
D03*
X26733Y24167D02*
G54D14*
D03*
X25590Y23271D02*
G54D14*
D03*
X25717Y23271D02*
G54D14*
D03*
X25844Y23271D02*
G54D14*
D03*
X25971Y23271D02*
G54D14*
D03*
X26098Y23271D02*
G54D14*
D03*
X26225Y23271D02*
G54D14*
D03*
X26352Y23271D02*
G54D14*
D03*
X26479Y23271D02*
G54D14*
D03*
X26606Y23271D02*
G54D14*
D03*
X26733Y23271D02*
G54D14*
D03*
X23868Y27088D02*
G54D14*
D03*
X23868Y26488D02*
G54D14*
D03*
X25317Y24110D02*
G54D14*
D03*
X24190Y24126D02*
G54D14*
D03*
X24920Y24015D02*
G54D14*
D03*
X24920Y23364D02*
G54D14*
D03*
X24479Y25157D02*
G54D14*
D03*
X24352Y25157D02*
G54D14*
D03*
X24225Y25157D02*
G54D14*
D03*
X24098Y25157D02*
G54D14*
D03*
X23971Y25157D02*
G54D14*
D03*
X23844Y25157D02*
G54D14*
D03*
X23717Y25157D02*
G54D14*
D03*
X24479Y25708D02*
G54D14*
D03*
X24352Y25708D02*
G54D14*
D03*
X24225Y25708D02*
G54D14*
D03*
X24098Y25708D02*
G54D14*
D03*
X23971Y25708D02*
G54D14*
D03*
X23844Y25708D02*
G54D14*
D03*
X23717Y25708D02*
G54D14*
D03*
X25952Y25317D02*
G54D14*
D03*
X25952Y24579D02*
G54D14*
D03*
X27388Y26415D02*
G54D14*
D03*
X27388Y26165D02*
G54D14*
D03*
X24063Y24915D02*
G54D14*
D03*
X23856Y24396D02*
G54D14*
D03*
X27039Y26415D02*
G54D14*
D03*
X27039Y26165D02*
G54D14*
D03*
X26915Y26775D02*
G54D14*
D03*
X27515Y26775D02*
G54D14*
D03*
X23761Y24094D02*
G54D14*
D03*
X23761Y23491D02*
G54D14*
D03*
X25825Y24825D02*
G54D14*
D03*
X24047Y26317D02*
G54D14*
D03*
X26746Y26317D02*
G54D14*
D03*
X25317Y24110D02*
G54D14*
D03*
X24190Y24126D02*
G54D14*
D03*
X24126Y23650D02*
G54D14*
D03*
M02*
